PathFileType	4	(X/Y/Z)	C:\Users\WrightLab\Desktop\Jo\P3_11.trc
DataRate	CameraRate	NumFrames	NumMarkers	Units	OrigDataRate	OrigDataStartFrame	OrigNumFrames
100.00	100.00	       10	19	mm	100.00	82	       653
Frame#	Time	Headset_Front			Headset_Back			Headset_Left			Headset_Right			Left_Shoulder			Right_Shoulder			Sternum			C7			Left Elbow			Right Elbow			Left Wrist			Right Wrist			Left ASIS			Right ASIS			S2			Left Knee			Right Knee			Left Ankle			Right Ankle			
		X1	Y1	Z1	X2	Y2	Z2	X3	Y3	Z3	X4	Y4	Z4	X5	Y5	Z5	X6	Y6	Z6	X7	Y7	Z7	X8	Y8	Z8	X9	Y9	Z9	X10	Y10	Z10	X11	Y11	Z11	X12	Y12	Z12	X13	Y13	Z13	X14	Y14	Z14	X15	Y15	Z15	X16	Y16	Z16	X17	Y17	Z17	X18	Y18	Z18	X19	Y19	Z19	

82	0.810				-690.99609	1556.71960	-914.81061				-776.77209	1501.29187	-719.13635	-490.56653	1285.10742	-831.92194	-851.89465	1291.31470	-856.15857	-674.59729	1179.40076	-710.14240				-428.82672	953.21625	-791.58099	-924.36700	945.72961	-877.98566	-457.59814	792.25354	-660.03058	-932.86530	761.55310	-740.38910	-574.63867	806.61743	-727.77948	-825.25775	829.32690	-734.60425	-686.06189	885.18787	-945.74854	-560.54114	397.09879	-878.73975	-827.32739	426.20605	-639.46851	-557.71442	118.04752	-1076.00842	-841.38129	87.25996	-607.53174	
83	0.820				-693.19641	1557.59937	-905.39447				-774.36151	1500.57214	-707.74280	-492.22852	1285.79272	-824.66626	-853.69092	1291.98779	-845.99274	-675.82379	1180.78552	-700.68976				-431.63562	953.39410	-786.56647	-926.69800	946.81287	-867.30725	-458.89230	790.79944	-656.12177	-935.37207	762.12384	-730.74170	-576.64941	808.01703	-715.61261	-827.13440	830.29797	-721.48273	-688.62347	886.09796	-934.92029	-562.56940	395.99631	-865.91479	-828.33057	426.26346	-629.45410	-558.69366	121.70425	-1071.80896	-841.65741	86.92926	-605.80469	
84	0.830				-695.21423	1559.42163	-896.63098				-778.36761	1503.39539	-698.94110	-494.55231	1286.73584	-817.26855	-856.16925	1293.65625	-836.22394	-676.86627	1181.71948	-690.26031				-433.78662	954.15302	-781.31921	-928.92487	948.27472	-856.26825	-459.44604	788.56311	-653.76996	-936.72229	762.33728	-722.87274	-577.43799	810.68933	-700.50165	-830.57709	833.80396	-712.07544	-690.87146	887.48126	-923.95221	-562.48151	396.55017	-853.00763	-828.52686	426.13422	-619.18304	-559.84283	127.24705	-1063.94849	-841.77136	85.19307	-604.86914	
85	0.840	-654.48132	1480.18396	-593.58643	-697.16913	1561.41101	-887.03131				-776.99316	1504.60559	-688.22919	-495.76898	1287.53503	-807.81140	-858.00348	1295.38208	-826.44183	-678.18964	1183.87146	-680.05927	-681.33911	1344.43274	-876.89471	-436.44437	954.50153	-774.93286	-931.15869	950.03473	-845.09613	-460.90359	787.30725	-650.06531	-938.70142	763.96844	-711.29333	-581.74243	810.33539	-693.24231	-831.33698	834.77515	-699.59363	-693.03064	889.03137	-913.56281	-563.04999	396.62476	-839.94855	-830.81299	427.30167	-611.91986	-559.85370	132.20874	-1054.96558	-842.46313	84.85890	-600.99957	
86	0.850				-699.16583	1563.43091	-877.48999				-776.80646	1506.31738	-678.16974	-497.48962	1289.56812	-799.91656	-860.09729	1297.51245	-816.44891	-679.99463	1186.14758	-669.75171	-683.13293	1345.18799	-863.31989	-438.84341	955.35620	-769.77820	-933.32666	952.22699	-834.58789	-462.18359	786.39417	-647.95667	-940.69293	766.07544	-701.45673	-584.77704	812.07983	-682.12451	-833.55054	837.63214	-690.64319	-694.68207	890.40002	-902.57220	-561.58588	397.94492	-824.36737	-832.23846	428.24329	-604.54688	-561.14899	135.56639	-1046.69092	-842.61060	83.72404	-601.16003	
87	0.860				-701.09467	1565.35657	-867.98468				-778.01257	1508.41980	-668.37140	-498.90536	1290.53723	-789.73975	-861.08209	1299.70752	-806.84521	-681.25494	1189.20862	-661.28510	-684.91010	1346.88904	-854.37360	-441.59567	956.58704	-763.52173	-935.45514	954.38574	-823.07483	-463.27554	785.25983	-645.13409	-943.07843	767.37335	-692.56927	-586.33209	814.04077	-671.28882	-834.19336	839.32922	-678.90045	-696.23431	891.84821	-891.58282	-562.13141	398.00275	-808.18140	-834.67035	429.73349	-598.64368	-562.60754	141.70753	-1035.91736	-843.25378	83.97110	-599.99774	
88	0.870	-656.21936	1485.54407	-566.69885	-702.88153	1567.57104	-858.17584				-779.62817	1510.48376	-658.97430	-500.55566	1293.01855	-782.70789	-862.82123	1301.75671	-796.66138	-682.51019	1191.43445	-650.41827	-686.64612	1348.41956	-846.36578	-443.83121	958.61157	-757.90540	-937.48724	957.05676	-812.47583	-464.27435	785.17432	-641.80402	-944.72272	769.43103	-681.92004	-588.58588	815.62860	-660.58435	-837.32904	843.07556	-669.88165	-698.44196	895.20288	-881.71948	-562.91290	397.35141	-791.05457	-836.66272	430.06943	-593.29919	-563.90747	148.67526	-1024.59155	-844.47845	86.16607	-595.63727	
89	0.880	-657.14117	1486.81067	-556.85718	-704.41663	1569.66040	-848.31873				-779.41089	1512.28149	-649.10284	-502.35406	1295.29993	-774.46405	-864.54602	1304.16858	-786.58447	-684.88367	1195.11304	-640.82977	-688.21375	1350.16797	-836.45490	-446.31677	960.18427	-752.87885	-939.48804	959.68311	-801.28296	-465.36865	784.71600	-639.40204	-947.08807	772.17847	-671.82336	-589.94928	818.16888	-651.78064	-838.87665	843.48376	-658.89886	-700.09216	897.49884	-871.64435	-563.97369	397.03458	-774.82709	-838.03705	429.19287	-586.80652	-564.30518	153.83725	-1012.59839	-844.53674	86.06368	-595.81866	
90	0.890	-657.12598	1488.20667	-547.23975	-705.85181	1571.82324	-839.26416				-781.14258	1514.19080	-639.90167	-503.57016	1297.28687	-764.89789	-865.40656	1306.33032	-776.22351	-684.95447	1197.16992	-630.82642	-689.66418	1351.94360	-826.74023	-448.41263	961.70258	-747.82977	-941.57874	962.64508	-791.07733	-466.09573	784.56702	-636.12378	-948.37964	773.71332	-659.62317	-593.54987	819.88281	-643.88342	-842.43750	846.77972	-649.76880	-701.10547	898.54468	-862.40057	-564.12592	396.38135	-756.86829	-840.00421	428.56940	-581.67230	-566.75586	159.24870	-999.66241	-845.04974	86.02696	-592.54034	
91	0.900	-658.17084	1491.47705	-539.59442	-707.25006	1573.55603	-830.44879				-781.20313	1515.17334	-629.90912	-505.01904	1298.84082	-755.94421	-866.54053	1308.86975	-766.55859	-686.56268	1199.60645	-621.24713	-691.09338	1353.93799	-817.61316	-449.85254	963.62146	-743.24542	-943.81873	965.31281	-780.48083	-466.64557	784.97797	-632.61426	-949.93097	776.87268	-649.18378	-594.74060	821.34113	-633.95905	-843.39081	848.10687	-639.70709	-703.39777	901.14441	-851.82367	-565.78558	396.28922	-738.11078	-841.86572	427.62128	-576.06555	-567.67389	165.84438	-987.26056	-845.08978	85.82627	-591.49323	
